<svg width="25" height="26" viewBox="0 0 48 49" fill="none" xmlns="http://www.w3.org/2000/svg">
<g clip-path="url(#clip0_132_112)">
<path fill-rule="evenodd" clip-rule="evenodd" d="M0 23.7795C0 10.4055 10.482 0.499512 24 0.499512C37.518 0.499512 48 10.4115 48 23.7855C48 37.1595 37.518 47.0655 24 47.0655C21.57 47.0655 19.242 46.7415 17.052 46.1415C16.626 46.0275 16.17 46.0575 15.768 46.2375L11.004 48.3375C10.7163 48.4644 10.4018 48.5187 10.0882 48.4957C9.77453 48.4726 9.47137 48.3728 9.20533 48.2051C8.93929 48.0374 8.71852 47.807 8.5624 47.534C8.40628 47.261 8.31961 46.9538 8.31 46.6395L8.178 42.3675C8.166 41.8395 7.926 41.3475 7.536 40.9995C2.868 36.8235 0 30.7755 0 23.7795ZM16.638 19.4055L9.58802 30.5895C8.91002 31.6635 10.23 32.8695 11.238 32.1015L18.81 26.3535C19.0592 26.1643 19.3632 26.0613 19.676 26.0603C19.9889 26.0592 20.2936 26.16 20.544 26.3475L26.154 30.5535C26.5519 30.8524 27.0075 31.0654 27.4919 31.1793C27.9763 31.2932 28.4791 31.3055 28.9685 31.2153C29.4579 31.1251 29.9232 30.9344 30.3352 30.6552C30.7472 30.3761 31.0968 30.0146 31.362 29.5935L38.418 18.4155C39.09 17.3415 37.77 16.1295 36.762 16.8975L29.19 22.6455C28.9409 22.8347 28.6369 22.9377 28.324 22.9388C28.0112 22.9399 27.7065 22.839 27.456 22.6515L21.846 18.4455C21.4481 18.1467 20.9926 17.9336 20.5081 17.8197C20.0237 17.7058 19.5209 17.6936 19.0316 17.7838C18.5422 17.874 18.0768 18.0647 17.6648 18.3438C17.2529 18.6229 16.9032 18.9844 16.638 19.4055Z" fill="white"/>
</g>
<defs>
<clipPath id="clip0_132_112">
<rect width="48" height="48.0013" fill="white" transform="translate(0 0.499512)"/>
</clipPath>
</defs>
</svg>
