<svg width="48" height="48" viewBox="0 0 48 48" fill="none" xmlns="http://www.w3.org/2000/svg">
<path d="M13.2 17.6V15.7715C13.2 9.69365 18.0171 4.80005 24 4.80005C27.7268 4.80005 31.0013 6.69892 32.9409 9.60005M13.2 17.6C11.22 17.6 9.59998 19.2458 9.59998 21.2572V39.5429C9.59998 41.5543 11.22 43.2 13.2 43.2H34.8C36.78 43.2 38.4 41.5543 38.4 39.5429V21.2572C38.4 19.2458 36.78 17.6 34.8 17.6H13.2ZM24 26.7429C25.98 26.7429 27.6 28.3886 27.6 30.4C27.6 32.4115 25.98 34.0572 24 34.0572C22.02 34.0572 20.4 32.4115 20.4 30.4C20.4 28.3886 22.02 26.7429 24 26.7429Z" stroke="#FFDB70" stroke-width="3" stroke-linecap="round"/>
</svg>
