<svg width="48" height="48" viewBox="0 0 48 48" fill="none" xmlns="http://www.w3.org/2000/svg">
<path d="M36.8948 36.5078L36.1321 35.2161L36.1321 35.2161L36.8948 36.5078ZM37.8779 34.7856L36.3779 34.7856L36.3779 34.7856L37.8779 34.7856ZM21.9312 42.807L21.1265 44.0729L21.1265 44.0729L21.9312 42.807ZM26.1109 42.8756L26.8736 44.1673L26.8736 44.1673L26.1109 42.8756ZM3.8082 16.2736L3.04031 14.9851L3.04031 14.9851L3.8082 16.2736ZM3.8082 17.9917L3.04031 19.2802L3.04031 19.2802L3.8082 17.9917ZM25.0239 29.4146L25.7918 30.7031L25.0239 29.4146ZM22.9762 29.4146L23.7441 28.126L23.7441 28.126L22.9762 29.4146ZM44.1918 16.2736L44.9597 14.9851L44.1918 16.2736ZM44.1918 17.9917L43.4239 16.7031L43.4239 16.7031L44.1918 17.9917ZM12.0352 36.5166L12.8398 35.2507L12.8398 35.2507L12.0352 36.5166ZM25.0239 4.85067L24.256 6.13921L24.256 6.13921L25.0239 4.85067ZM22.9762 4.85067L23.7441 6.13921L23.7441 6.13921L22.9762 4.85067ZM45.9 17.0993C45.9 16.2709 45.2284 15.5993 44.4 15.5993C43.5716 15.5993 42.9 16.2709 42.9 17.0993H45.9ZM42.9 27.8993C42.9 28.7278 43.5716 29.3993 44.4 29.3993C45.2284 29.3993 45.9 28.7278 45.9 27.8993H42.9ZM24.256 6.13921L43.4239 17.5621L44.9597 14.9851L25.7918 3.56213L24.256 6.13921ZM43.4239 16.7031L24.256 28.126L25.7918 30.7031L44.9597 19.2802L43.4239 16.7031ZM4.57609 17.5621L23.7441 6.13921L22.2083 3.56213L3.04031 14.9851L4.57609 17.5621ZM23.7441 28.126L11.876 21.0534L10.3402 23.6305L22.2083 30.7031L23.7441 28.126ZM11.876 21.0534L4.57609 16.7031L3.04031 19.2802L10.3402 23.6305L11.876 21.0534ZM9.60807 22.3419V34.8287H12.6081V22.3419H9.60807ZM11.2305 37.7825L21.1265 44.0729L22.7359 41.5412L12.8398 35.2507L11.2305 37.7825ZM26.8736 44.1673L37.6575 37.7994L36.1321 35.2161L25.3482 41.584L26.8736 44.1673ZM39.3779 34.7856L39.3779 22.3419L36.3779 22.3419L36.3779 34.7856L39.3779 34.7856ZM37.6575 37.7994C38.7237 37.1698 39.3779 36.0238 39.3779 34.7856L36.3779 34.7856C36.3779 34.9625 36.2844 35.1262 36.1321 35.2161L37.6575 37.7994ZM21.1265 44.0729C22.8721 45.1825 25.0926 45.219 26.8736 44.1673L25.3482 41.584C24.5386 42.0621 23.5293 42.0455 22.7359 41.5412L21.1265 44.0729ZM3.04031 14.9851C1.4134 15.9546 1.41341 18.3107 3.04031 19.2802L4.57609 16.7031C4.90147 16.897 4.90148 17.3682 4.57609 17.5621L3.04031 14.9851ZM24.256 28.126C24.0983 28.22 23.9018 28.22 23.7441 28.126L22.2083 30.7031C23.3122 31.361 24.6878 31.361 25.7918 30.7031L24.256 28.126ZM43.4239 17.5621C43.0986 17.3682 43.0986 16.897 43.4239 16.7031L44.9597 19.2802C46.5866 18.3107 46.5866 15.9546 44.9597 14.9851L43.4239 17.5621ZM9.60807 34.8287C9.60807 36.026 10.2201 37.1402 11.2305 37.7825L12.8398 35.2507C12.6955 35.1589 12.6081 34.9997 12.6081 34.8287H9.60807ZM25.7918 3.56213C24.6878 2.90426 23.3122 2.90426 22.2083 3.56213L23.7441 6.13921C23.9018 6.04523 24.0983 6.04523 24.256 6.13921L25.7918 3.56213ZM42.9 17.0993V27.8993H45.9V17.0993H42.9Z" fill="#9D87CD"/>
</svg>
